<?xml version="1.0" encoding="UTF-8"?>
<svg id="Camada_1" data-name="Camada 1" xmlns="http://www.w3.org/2000/svg" viewBox="0 0 217.21 205.33">
  <defs>
    <style>
      .cls-1 {
        fill: #e51a46;
        stroke-width: 0px;
      }
    </style>
  </defs>
  <path class="cls-1" d="M194.95,8.45h-21.63c-11.37,0-17.6,6.23-17.6,17.6v9.17c-13.56-21.26-35.56-30.79-60.49-30.79C42.43,4.41,4.67,47.31,4.67,102.67s37.76,98.25,90.55,98.25c1.31,0,2.61-.04,3.9-.09v-50.4c0-11.37,6.23-17.6,17.6-17.6h21.26c11.37,0,17.96,6.23,17.96,17.6v32.14c1.13,9.26,7.16,14.32,17.36,14.32h21.63c11.37,0,17.6-6.23,17.6-17.6V26.04c0-11.37-6.23-17.6-17.6-17.6ZM129.96,115.06c-20.9,0-34.1-12.83-34.1-29.33s12.1-29.7,34.1-29.7,34.1,12.83,34.1,29.7-13.2,29.33-34.1,29.33Z"/>
</svg>