<?xml version="1.0" encoding="utf-8"?>
<!-- Generator: Adobe Illustrator 28.2.0, SVG Export Plug-In . SVG Version: 6.00 Build 0)  -->
<svg version="1.1" id="Layer_1" xmlns="http://www.w3.org/2000/svg" xmlns:xlink="http://www.w3.org/1999/xlink" x="0px" y="0px"
	 viewBox="0 0 1613 510.9" style="enable-background:new 0 0 1613 510.9;" xml:space="preserve">
<style type="text/css">
	.st0{fill:#BABABA;}
	.st1{fill:#E51A46;}
</style>
<g id="Camada_1">
	<g>
		<path class="st0" d="M0,327.8c0-103.2,70.3-183.4,168.9-183.4c46.5,0,87.7,17.7,112.8,57.3v-17c0-21.1,11.8-32.8,32.8-32.8h40.3
			c21.1,0,32.8,11.8,32.8,32.8v286c0,21.1-11.8,32.8-32.8,32.8h-40.3c-21.1,0-32.8-11.8-32.8-32.8v-16.4
			c-25.4,39-66.3,56.7-112.8,56.7C70.3,510.9,0,431.6,0,327.8z M283.2,327.8c0-56.1-35.6-98.5-89.5-98.5S106,273.6,106,327.8
			s32.2,98.5,87.7,98.5S283.2,383.9,283.2,327.8z"/>
		<path class="st0" d="M419.8,55.5c0-31.6,22.6-55.5,63.5-55.5s63.5,23.9,63.5,55.5s-24.5,54.8-63.5,54.8S419.8,86.1,419.8,55.5z
			 M431,470.6v-286c0-21.1,11.8-32.8,32.8-32.8h39.7c21.1,0,33.5,11.8,33.5,32.8v286c0,21.1-12.4,32.8-33.5,32.8h-39.7
			C442.4,503.5,431,492,431,470.6z"/>
		<path class="st0" d="M574.4,470.6V41.8c0-21.1,11.8-32.8,32.8-32.8h39.7c21.1,0,33.5,11.8,33.5,32.8v428.8
			c0,21.1-12.4,32.8-33.5,32.8h-39.7C586.2,503.5,574.4,492,574.4,470.6z"/>
		<path class="st1" d="M707,55.5C707,23.9,729.7,0,770.6,0s63.5,23.9,63.5,55.5s-24.8,54.8-63.5,54.8C731.8,110.3,707,86.1,707,55.5
			L707,55.5z M717.9,470.6v-286c0-21.1,11.8-32.8,32.8-32.8h39.7c21.1,0,33.5,11.8,33.5,32.8v286c0,21.1-12.4,32.8-33.5,32.8h-39.7
			C729.7,503.5,717.9,492,717.9,470.6L717.9,470.6z"/>
		<path class="st0" d="M1271.9,470.6v-286c0-21.1,11.8-32.8,32.8-32.8h40.3c21.1,0,32.8,11.8,32.8,32.8v23.2
			c17-40.3,54.8-63.5,106.6-63.5c94.5,0,128.6,73.7,128.6,156.8v169.8c0,21.1-12.4,32.8-33.5,32.8h-39.7
			c-21.1,0-32.8-11.8-32.8-32.8V308.6c0-49.3-19.2-78.1-55.5-78.1s-74.1,28.2-74.1,93.6v146.2c0,21.1-11.8,32.8-32.8,32.8h-40.3
			C1283.6,503.5,1271.9,492,1271.9,470.6L1271.9,470.6z"/>
		<path class="st1" d="M851.7,327.8c0-103.2,70.3-183.4,168.9-183.4c46.5,0,87.7,17.7,112.8,57.3v-17c0-21.1,11.8-32.8,32.8-32.8
			h40.3c21.1,0,32.8,11.8,32.8,32.8v286c0,21.1-11.8,32.8-32.8,32.8h-40.3c-21.1,0-32.8-11.8-32.8-32.8v-16.4
			c-25.4,39-66.3,56.7-112.8,56.7C922.1,510.9,851.7,431.6,851.7,327.8z M1134.9,327.8c0-56.1-35.6-98.5-89.5-98.5
			s-87.7,44.3-87.7,98.5s32.2,98.5,87.7,98.5S1134.9,383.9,1134.9,327.8z"/>
	</g>
</g>
</svg>
