<?xml version="1.0" encoding="utf-8"?>
<!-- Generator: Adobe Illustrator 28.2.0, SVG Export Plug-In . SVG Version: 6.00 Build 0)  -->
<svg version="1.1" id="Layer_1" xmlns="http://www.w3.org/2000/svg" xmlns:xlink="http://www.w3.org/1999/xlink" x="0px" y="0px"
	 viewBox="0 0 1616.4 512" style="enable-background:new 0 0 1616.4 512;" xml:space="preserve">
<style type="text/css">
	.st0{fill:#BABABA;}
	.st1{fill:#E51A46;}
</style>
<g id="Camada_1">
	<g>
		<path class="st0" d="M0,328.5c0-103.4,70.5-183.8,169.2-183.8c46.6,0,87.9,17.7,113,57.4v-17.1c0-21.1,11.8-32.9,32.9-32.9h40.4
			c21.1,0,32.9,11.8,32.9,32.9v286.6c0,21.1-11.8,32.9-32.9,32.9h-40.4c-21.1,0-32.9-11.8-32.9-32.9v-16.5
			c-25.5,39.1-66.4,56.8-113,56.8C70.5,512,0,432.5,0,328.5z M283.8,328.5c0-56.2-35.7-98.7-89.7-98.7s-87.9,44.4-87.9,98.7
			s32.3,98.7,87.9,98.7S283.8,384.7,283.8,328.5z"/>
		<path class="st0" d="M420.7,55.6c0-31.7,22.7-55.6,63.7-55.6S548,23.9,548,55.6s-24.5,55-63.7,55S420.7,86.3,420.7,55.6z
			 M431.9,471.6V185.1c0-21.1,11.8-32.9,32.9-32.9h39.7c21.1,0,33.5,11.8,33.5,32.9v286.6c0,21.1-12.4,32.9-33.5,32.9h-39.7
			C443.4,504.5,431.9,493.1,431.9,471.6z"/>
		<path class="st0" d="M575.7,471.6V41.9c0-21.1,11.8-32.9,32.9-32.9h39.7c21.1,0,33.5,11.8,33.5,32.9v429.7
			c0,21.1-12.4,32.9-33.5,32.9h-39.7C587.4,504.5,575.7,493.1,575.7,471.6z"/>
		<path class="st1" d="M708.5,55.6c0-31.7,22.7-55.6,63.7-55.6c41,0,63.7,23.9,63.7,55.6s-24.8,55-63.7,55S708.5,86.3,708.5,55.6
			L708.5,55.6z M719.4,471.6V185.1c0-21.1,11.8-32.9,32.9-32.9h39.7c21.1,0,33.5,11.8,33.5,32.9v286.6c0,21.1-12.4,32.9-33.5,32.9
			h-39.7C731.2,504.5,719.4,493.1,719.4,471.6L719.4,471.6z"/>
		<path class="st0" d="M1274.6,471.6V185.1c0-21.1,11.8-32.9,32.9-32.9h40.4c21.1,0,32.9,11.8,32.9,32.9v23.3
			c17.1-40.4,55-63.7,106.8-63.7c94.7,0,128.9,73.9,128.9,157.1v170.1c0,21.1-12.4,32.9-33.5,32.9h-39.7
			c-21.1,0-32.9-11.8-32.9-32.9V309.2c0-49.4-19.3-78.2-55.6-78.2s-74.2,28.3-74.2,93.8v146.6c0,21.1-11.8,32.9-32.9,32.9h-40.4
			C1286.4,504.5,1274.6,493.1,1274.6,471.6L1274.6,471.6z"/>
		<path class="st1" d="M853.5,328.5c0-103.4,70.5-183.8,169.2-183.8c46.6,0,87.9,17.7,113,57.4v-17.1c0-21.1,11.8-32.9,32.9-32.9
			h40.4c21.1,0,32.9,11.8,32.9,32.9v286.6c0,21.1-11.8,32.9-32.9,32.9h-40.4c-21.1,0-32.9-11.8-32.9-32.9v-16.5
			c-25.5,39.1-66.4,56.8-113,56.8C924,512,853.5,432.5,853.5,328.5z M1137.3,328.5c0-56.2-35.7-98.7-89.7-98.7
			c-54,0-87.9,44.4-87.9,98.7s32.3,98.7,87.9,98.7C1103.2,427.2,1137.3,384.7,1137.3,328.5z"/>
	</g>
</g>
</svg>
