<?xml version="1.0" encoding="utf-8"?>
<!-- Generator: Adobe Illustrator 28.2.0, SVG Export Plug-In . SVG Version: 6.00 Build 0)  -->
<svg version="1.1" id="Layer_1" xmlns="http://www.w3.org/2000/svg" xmlns:xlink="http://www.w3.org/1999/xlink" x="0px" y="0px"
	 viewBox="0 0 16 16" style="enable-background:new 0 0 16 16;" xml:space="preserve">
<style type="text/css">
	.st0{fill:#E51A46;}
</style>
<path class="st0" d="M14.6,0.5H13c-0.9,0-1.4,0.5-1.4,1.4v0.7C10.6,1,8.9,0.2,7,0.2C2.9,0.2,0,3.6,0,8s2.9,7.8,7,7.8
	c0.1,0,0.2,0,0.3,0v-4c0-0.9,0.5-1.4,1.4-1.4h1.6c0.9,0,1.4,0.5,1.4,1.4v2.5c0.1,0.7,0.6,1.1,1.3,1.1h1.7c0.9,0,1.4-0.5,1.4-1.4V1.9
	C16,1,15.5,0.5,14.6,0.5L14.6,0.5z M9.6,9C8,9,7,8,7,6.7S8,4.3,9.6,4.3s2.6,1,2.6,2.4S11.3,9,9.6,9L9.6,9z"/>
</svg>
