<?xml version="1.0" encoding="UTF-8"?>
<svg id="Camada_1" data-name="Camada 1" xmlns="http://www.w3.org/2000/svg" viewBox="0 0 525.67 173.29">
  <defs>
    <style>
      .cls-1 {
        fill: #92908d;
      }

      .cls-1, .cls-2 {
        stroke-width: 0px;
      }

      .cls-2 {
        fill: #e61d47;
      }
    </style>
  </defs>
  <path class="cls-1" d="M62.53,47.87C28.05,47.87,0,75.92,0,110.4s28.05,62.53,62.53,62.53h9.37c8.69,0,15.74-7.05,15.74-15.74s-7.05-15.74-15.74-15.74h-9.37c-17.12,0-31.04-13.93-31.04-31.04s13.93-31.04,31.04-31.04,31.04,13.93,31.04,31.04v46.78c0,8.69,7.05,15.74,15.74,15.74s15.74-7.05,15.74-15.74v-46.78c0-34.48-28.05-62.53-62.53-62.53Z"/>
  <path class="cls-2" d="M331.72,46.94c-34.48,0-62.53,28.05-62.53,62.53s28.05,62.53,62.53,62.53h9.37c8.69,0,15.74-7.05,15.74-15.74s-7.05-15.74-15.74-15.74h-9.37c-17.12,0-31.04-13.93-31.04-31.04s13.92-31.04,31.04-31.04,31.04,13.93,31.04,31.04v46.78c0,8.69,7.05,15.74,15.74,15.74s15.74-7.05,15.74-15.74v-46.78c0-34.48-28.05-62.53-62.53-62.53Z"/>
  <path class="cls-1" d="M153.36,59.7c-8.76,0-15.86,7.1-15.86,15.86v81.87c0,8.76,7.1,15.86,15.86,15.86s15.86-7.1,15.86-15.86v-81.87c0-8.76-7.1-15.86-15.86-15.86Z"/>
  <path class="cls-1" d="M198.1,0c-8.76,0-15.86,7.1-15.86,15.86v141.56c0,8.76,7.1,15.86,15.86,15.86s15.86-7.1,15.86-15.86V15.86c0-8.76-7.1-15.86-15.86-15.86Z"/>
  <circle class="cls-1" cx="153.36" cy="35.51" r="16.02"/>
  <path class="cls-2" d="M244.14,58.77c-8.76,0-15.86,7.1-15.86,15.86v81.87c0,8.76,7.1,15.86,15.86,15.86s15.86-7.1,15.86-15.86v-81.87c0-8.76-7.1-15.86-15.86-15.86Z"/>
  <circle class="cls-2" cx="244.14" cy="34.58" r="16.02"/>
  <path class="cls-1" d="M465.81,46.94c-33,0-59.85,26.85-59.85,59.85v48.89c0,8.69,7.05,15.74,15.74,15.74s15.74-7.05,15.74-15.74v-48.89c0-15.64,12.73-28.37,28.37-28.37s28.37,12.73,28.37,28.37v48.89c0,8.69,7.05,15.74,15.74,15.74s15.74-7.05,15.74-15.74v-48.89c0-33-26.85-59.85-59.85-59.85Z"/>
</svg>